<svg width="14" height="14" viewBox="0 0 14 14" fill="none" xmlns="http://www.w3.org/2000/svg">
<g clip-path="url(#clip0_132_481)">
<path d="M7.14955 3.7261C7.74185 3.7261 8.22647 3.23773 8.22647 2.64083C8.22647 2.04393 7.74185 1.55556 7.14955 1.55556C6.55724 1.55556 6.07262 2.04393 6.07262 2.64083C6.07262 3.23773 6.55724 3.7261 7.14955 3.7261ZM5.15724 5.57106L3.64955 13.2222H4.78032L5.74955 8.88114L6.88031 9.96641V13.2222H7.95724V9.15246L6.82647 8.06719L7.14955 6.43928C7.84955 7.25323 8.92647 7.79587 10.1111 7.79587V6.7106C9.08801 6.7106 8.22647 6.16796 7.7957 5.40827L7.25724 4.54005C7.04185 4.21447 6.71878 3.99742 6.34185 3.99742C6.18032 3.99742 6.07262 4.05168 5.91108 4.05168L3.11108 5.24548V7.79587H4.18801V5.95091L5.15724 5.57106Z" fill="#CE0E2D"/>
</g>
<defs>
<clipPath id="clip0_132_481">
<rect width="14" height="14" fill="white"/>
</clipPath>
</defs>
</svg>
