<svg width="230" height="41" viewBox="0 0 230 41" fill="none" xmlns="http://www.w3.org/2000/svg">
<path d="M159.499 0.513213V39.6622" stroke="#4D4D4D" stroke-miterlimit="10"/>
<path d="M186.569 16.6203C184.392 16.6203 182.304 17.4871 180.765 19.03C179.226 20.5729 178.361 22.6655 178.361 24.8475C178.361 27.0295 179.226 29.1221 180.765 30.665C182.304 32.2079 184.392 33.0746 186.569 33.0746C189.594 32.9806 192.477 31.7678 194.663 29.67V35.8331C192.069 37.3371 189.141 38.1661 186.146 38.2443C178.592 38.2443 172.25 32.0812 172.25 24.8475C172.25 17.199 178.63 11.4603 186.185 11.4603C189.132 11.5116 192.034 12.1888 194.701 13.4471V19.4945C192.313 17.7602 189.476 16.7552 186.531 16.601" fill="#CE0E2D"/>
<path d="M210.753 38.2443C203.16 38.2443 196.741 32.3127 196.741 24.8475C196.741 17.3823 203.122 11.4603 211.1 11.4603C214.091 11.4873 217.049 12.0966 219.809 13.2542V19.292C217.205 17.7155 214.253 16.8077 211.215 16.6493C210.106 16.6133 209.001 16.7982 207.963 17.1933C206.926 17.5884 205.977 18.1858 205.171 18.951C204.366 19.7161 203.72 20.6338 203.27 21.6509C202.821 22.668 202.578 23.7644 202.554 24.8764C202.634 26.2589 203.034 27.6036 203.724 28.8035C204.413 30.0034 205.373 31.0253 206.526 31.7878C207.68 32.5503 208.995 33.0323 210.367 33.1954C211.739 33.3586 213.13 33.1983 214.429 32.7274V27.9049H210.157V22.7835H219.934V36.3346C217.036 37.6263 213.896 38.2839 210.724 38.2636" fill="#CE0E2D"/>
<path d="M229.74 11.9907H224.245V37.7042H229.74V11.9907Z" fill="#CE0E2D"/>
<path d="M178.091 5.93369C177.244 5.93939 176.424 5.63013 175.791 5.06564L176.503 4.22653C176.943 4.63697 177.519 4.87046 178.12 4.88239C178.601 4.88239 178.9 4.68949 178.9 4.3712C178.9 4.07221 178.717 3.91789 177.812 3.68641C176.715 3.40671 176.013 3.09807 176.013 2.02747C176.018 1.78856 176.075 1.55359 176.177 1.33793C176.28 1.12227 176.427 0.930791 176.609 0.776013C176.79 0.621235 177.003 0.50665 177.232 0.439757C177.461 0.372863 177.701 0.355168 177.937 0.38783C178.668 0.376666 179.38 0.622366 179.948 1.08227L179.333 1.97925C178.924 1.6649 178.432 1.48015 177.918 1.44878C177.466 1.44878 177.225 1.66097 177.225 1.92138C177.225 2.27824 177.456 2.40363 178.389 2.63511C179.496 2.92446 180.112 3.3199 180.112 4.26511C180.083 5.3357 179.265 5.93369 178.091 5.93369Z" fill="#4D4D4D"/>
<path d="M183.673 5.85653V5.26819C183.541 5.47071 183.362 5.63745 183.15 5.75356C182.938 5.86968 182.701 5.93156 182.46 5.93369C182.262 5.9426 182.063 5.90764 181.88 5.83127C181.696 5.75491 181.531 5.63901 181.397 5.49178C181.263 5.34455 181.163 5.16958 181.104 4.97928C181.045 4.78897 181.028 4.58796 181.055 4.39049V1.69955H182.229V4.02398C182.229 4.58339 182.499 4.8631 182.941 4.8631C183.384 4.8631 183.673 4.58339 183.673 4.02398V1.69955H184.856V5.85653H183.673Z" fill="#4D4D4D"/>
<path d="M188.465 5.93369C188.217 5.93972 187.971 5.88697 187.747 5.77971C187.523 5.67245 187.327 5.51372 187.176 5.31641V7.10073H185.992V1.69954H187.176V2.29753C187.317 2.08531 187.509 1.91217 187.734 1.79415C187.959 1.67613 188.211 1.61705 188.465 1.62238C188.738 1.62057 189.008 1.67678 189.257 1.78728C189.506 1.89779 189.729 2.06007 189.911 2.2634C190.093 2.46673 190.23 2.70646 190.312 2.96674C190.395 3.22702 190.421 3.5019 190.39 3.77321C190.423 4.04527 190.397 4.32121 190.315 4.58266C190.234 4.84411 190.097 5.08507 189.915 5.28948C189.733 5.4939 189.509 5.65708 189.259 5.76816C189.009 5.87924 188.739 5.93567 188.465 5.93369ZM189.177 3.77321C189.197 3.6285 189.186 3.48117 189.145 3.34116C189.103 3.20115 189.032 3.0717 188.936 2.96155C188.84 2.85139 188.722 2.76308 188.589 2.70257C188.457 2.64206 188.313 2.61074 188.167 2.61074C188.021 2.61074 187.877 2.64206 187.744 2.70257C187.612 2.76308 187.494 2.85139 187.398 2.96155C187.302 3.0717 187.231 3.20115 187.189 3.34116C187.148 3.48117 187.136 3.6285 187.156 3.77321C187.136 3.91793 187.148 4.06526 187.189 4.20527C187.231 4.34528 187.302 4.47472 187.398 4.58488C187.494 4.69504 187.612 4.78334 187.744 4.84386C187.877 4.90437 188.021 4.93568 188.167 4.93568C188.313 4.93568 188.457 4.90437 188.589 4.84386C188.722 4.78334 188.84 4.69504 188.936 4.58488C189.032 4.47472 189.103 4.34528 189.145 4.20527C189.186 4.06526 189.197 3.91793 189.177 3.77321Z" fill="#4D4D4D"/>
<path d="M193.777 5.93369C193.526 5.94281 193.276 5.89154 193.048 5.78417C192.821 5.67679 192.622 5.51641 192.469 5.31641V7.10073H191.285V1.69954H192.469V2.29753C192.61 2.08531 192.802 1.91217 193.027 1.79415C193.252 1.67613 193.504 1.61705 193.758 1.62238C194.031 1.62057 194.3 1.67678 194.55 1.78728C194.799 1.89779 195.022 2.06007 195.204 2.2634C195.386 2.46673 195.523 2.70646 195.605 2.96674C195.688 3.22702 195.714 3.5019 195.683 3.77321C195.715 4.04365 195.691 4.31795 195.61 4.57805C195.529 4.83814 195.394 5.07814 195.214 5.28224C195.034 5.48635 194.813 5.64992 194.565 5.76221C194.318 5.87449 194.049 5.93293 193.777 5.93369ZM194.49 3.77321C194.51 3.6285 194.498 3.48117 194.457 3.34116C194.415 3.20115 194.344 3.0717 194.248 2.96155C194.153 2.85139 194.034 2.76308 193.902 2.70257C193.769 2.64206 193.625 2.61074 193.479 2.61074C193.333 2.61074 193.189 2.64206 193.057 2.70257C192.924 2.76308 192.806 2.85139 192.71 2.96155C192.614 3.0717 192.543 3.20115 192.501 3.34116C192.46 3.48117 192.449 3.6285 192.469 3.77321C192.449 3.91793 192.46 4.06526 192.501 4.20527C192.543 4.34528 192.614 4.47472 192.71 4.58488C192.806 4.69504 192.924 4.78334 193.057 4.84386C193.189 4.90437 193.333 4.93568 193.479 4.93568C193.625 4.93568 193.769 4.90437 193.902 4.84386C194.034 4.78334 194.153 4.69504 194.248 4.58488C194.344 4.47472 194.415 4.34528 194.457 4.20527C194.498 4.06526 194.51 3.91793 194.49 3.77321Z" fill="#4D4D4D"/>
<path d="M198.656 5.95298C198.368 5.96332 198.08 5.9154 197.81 5.81208C197.54 5.70875 197.294 5.55211 197.086 5.35148C196.877 5.15085 196.711 4.91031 196.598 4.64416C196.484 4.37801 196.425 4.09167 196.424 3.80215C196.424 3.20613 196.66 2.63453 197.081 2.21308C197.501 1.79164 198.071 1.55487 198.666 1.55487C199.261 1.55487 199.831 1.79164 200.252 2.21308C200.672 2.63453 200.908 3.20613 200.908 3.80215C200.905 4.09257 200.843 4.37932 200.727 4.64557C200.612 4.91182 200.444 5.15218 200.234 5.35256C200.024 5.55293 199.777 5.70926 199.506 5.81237C199.235 5.91548 198.946 5.96328 198.656 5.95298ZM199.744 3.79251C199.75 3.64492 199.727 3.49753 199.675 3.35916C199.624 3.22078 199.545 3.09425 199.443 2.98712C199.342 2.88 199.22 2.79447 199.085 2.73564C198.95 2.67682 198.804 2.64591 198.656 2.64475C198.51 2.64178 198.364 2.66932 198.229 2.72562C198.094 2.78192 197.972 2.86576 197.87 2.97184C197.769 3.07791 197.691 3.2039 197.641 3.34184C197.59 3.47979 197.569 3.62668 197.579 3.77322C197.573 3.92128 197.598 4.06888 197.651 4.20729C197.703 4.34571 197.783 4.47214 197.886 4.57913C197.988 4.68611 198.11 4.77148 198.246 4.83019C198.382 4.8889 198.528 4.91977 198.676 4.92097C198.822 4.92269 198.968 4.8939 199.102 4.83642C199.237 4.77893 199.359 4.69401 199.459 4.58702C199.56 4.48004 199.637 4.35332 199.686 4.21489C199.735 4.07647 199.755 3.92935 199.744 3.78286V3.79251Z" fill="#4D4D4D"/>
<path d="M204.286 2.89552C203.507 2.89552 203.026 3.36812 203.026 4.36156V5.85653H201.852V1.69954H203.054V2.53866C203.139 2.25912 203.315 2.01639 203.554 1.85001C203.794 1.68363 204.082 1.60339 204.373 1.62238V2.89552H204.286Z" fill="#4D4D4D"/>
<path d="M206.577 5.93368C205.855 5.93368 205.364 5.64434 205.364 4.67984V2.75084H204.873V1.78635H205.364V0.638595H206.548V1.69954H207.51V2.71226H206.548V4.48694C206.548 4.757 206.663 4.89203 206.923 4.89203C207.124 4.89106 207.322 4.84143 207.5 4.74735V5.71185C207.219 5.87112 206.899 5.94799 206.577 5.93368Z" fill="#4D4D4D"/>
<path d="M212.216 4.19759H209.329C209.366 4.42581 209.483 4.63316 209.66 4.78187C209.836 4.93057 210.061 5.01074 210.291 5.00777C210.48 5.00957 210.666 4.97287 210.84 4.89991C211.014 4.82694 211.171 4.71924 211.302 4.58339L211.975 5.18138C211.771 5.43131 211.512 5.63086 211.218 5.76463C210.924 5.8984 210.604 5.96284 210.282 5.95297C209.995 5.96645 209.708 5.92027 209.44 5.81734C209.172 5.7144 208.929 5.55694 208.724 5.35488C208.52 5.15282 208.36 4.91054 208.253 4.64331C208.147 4.37607 208.097 4.08967 208.107 3.80214C208.095 3.52296 208.14 3.24428 208.238 2.9827C208.336 2.72112 208.485 2.48198 208.677 2.2795C208.869 2.07703 209.1 1.91537 209.356 1.80413C209.612 1.6929 209.887 1.63437 210.166 1.63203C210.453 1.62511 210.737 1.67934 211.001 1.79112C211.265 1.90291 211.503 2.06969 211.697 2.28039C211.892 2.4911 212.04 2.74091 212.131 3.01326C212.222 3.2856 212.254 3.57423 212.226 3.86001C212.226 4.01433 212.226 4.08185 212.216 4.19759ZM210.214 2.56759C209.982 2.58087 209.762 2.67808 209.596 2.84123C209.43 3.00437 209.328 3.2224 209.31 3.45493H211.08C211.08 3.22289 210.99 3.00007 210.828 2.83421C210.666 2.66834 210.446 2.57263 210.214 2.56759Z" fill="#4D4D4D"/>
<path d="M216.19 5.85653V5.25854C216.049 5.47216 215.855 5.64619 215.628 5.76428C215.401 5.88238 215.147 5.94067 214.891 5.93369C214.62 5.93534 214.351 5.87936 214.102 5.76943C213.854 5.65951 213.631 5.49812 213.45 5.29587C213.268 5.09363 213.131 4.85512 213.048 4.59601C212.964 4.3369 212.937 4.06306 212.967 3.79251C212.935 3.5212 212.962 3.24631 213.044 2.98603C213.127 2.72575 213.264 2.48602 213.446 2.28269C213.628 2.07936 213.851 1.91708 214.1 1.80657C214.349 1.69607 214.619 1.63986 214.891 1.64168C215.142 1.63601 215.39 1.68986 215.616 1.79882C215.842 1.90778 216.039 2.06876 216.19 2.2686V0.194931H217.364V5.85653H216.19ZM216.19 3.77322C216.204 3.63257 216.188 3.4906 216.144 3.35644C216.1 3.22227 216.028 3.09888 215.933 2.99419C215.839 2.88951 215.723 2.80585 215.594 2.7486C215.465 2.69136 215.326 2.66178 215.185 2.66178C215.044 2.66178 214.904 2.69136 214.775 2.7486C214.647 2.80585 214.531 2.88951 214.436 2.99419C214.342 3.09888 214.27 3.22227 214.225 3.35644C214.181 3.4906 214.165 3.63257 214.179 3.77322C214.165 3.91386 214.181 4.05583 214.225 4.19C214.27 4.32416 214.342 4.44755 214.436 4.55224C214.531 4.65692 214.647 4.74058 214.775 4.79783C214.904 4.85508 215.044 4.88465 215.185 4.88465C215.326 4.88465 215.465 4.85508 215.594 4.79783C215.723 4.74058 215.839 4.65692 215.933 4.55224C216.028 4.44755 216.1 4.32416 216.144 4.19C216.188 4.05583 216.204 3.91386 216.19 3.77322Z" fill="#4D4D4D"/>
<path d="M223.389 5.93369C223.14 5.9413 222.894 5.88924 222.669 5.78186C222.445 5.67448 222.249 5.51489 222.099 5.31641V5.85653H220.915V0.194931H222.099V2.29753C222.24 2.08532 222.432 1.91217 222.658 1.79415C222.883 1.67613 223.134 1.61705 223.389 1.62239C223.661 1.62057 223.931 1.67678 224.18 1.78728C224.429 1.89779 224.652 2.06007 224.834 2.2634C225.016 2.46673 225.153 2.70646 225.236 2.96674C225.318 3.22702 225.345 3.50191 225.313 3.77322C225.346 4.04527 225.321 4.32121 225.239 4.58266C225.157 4.84411 225.02 5.08507 224.838 5.28949C224.656 5.4939 224.433 5.65708 224.183 5.76816C223.933 5.87924 223.662 5.93567 223.389 5.93369ZM224.101 3.77322C224.121 3.6285 224.11 3.48117 224.068 3.34116C224.026 3.20115 223.955 3.0717 223.86 2.96155C223.764 2.85139 223.646 2.76308 223.513 2.70257C223.38 2.64206 223.236 2.61075 223.09 2.61075C222.945 2.61075 222.801 2.64206 222.668 2.70257C222.535 2.76308 222.417 2.85139 222.321 2.96155C222.225 3.0717 222.154 3.20115 222.113 3.34116C222.071 3.48117 222.06 3.6285 222.08 3.77322C222.06 3.91793 222.071 4.06526 222.113 4.20527C222.154 4.34528 222.225 4.47473 222.321 4.58488C222.417 4.69504 222.535 4.78335 222.668 4.84386C222.801 4.90437 222.945 4.93568 223.09 4.93568C223.236 4.93568 223.38 4.90437 223.513 4.84386C223.646 4.78335 223.764 4.69504 223.86 4.58488C223.955 4.47473 224.026 4.34528 224.068 4.20527C224.11 4.06526 224.121 3.91793 224.101 3.77322Z" fill="#4D4D4D"/>
<path d="M228.393 5.96262C228.075 6.80174 227.729 7.12002 227.026 7.12002C226.66 7.12773 226.3 7.0307 225.987 6.84032L226.382 5.98191C226.531 6.07911 226.704 6.13561 226.882 6.14588C226.971 6.15476 227.061 6.13285 227.136 6.08375C227.211 6.03465 227.268 5.9613 227.296 5.87582L225.669 1.69955H226.911L227.873 4.53517L228.778 1.69955H230L228.393 5.96262Z" fill="#4D4D4D"/>
<path d="M0 0.590371H3.89749C4.30681 0.560428 4.71796 0.613307 5.10647 0.745863C5.49498 0.878419 5.85292 1.08794 6.159 1.36197C6.34681 1.55021 6.49477 1.77453 6.59399 2.02148C6.69321 2.26842 6.74165 2.53291 6.7364 2.79907C6.74405 3.20657 6.63115 3.60722 6.41194 3.9505C6.19273 4.29379 5.87701 4.56435 5.5046 4.72806C5.99539 4.82281 6.43749 5.08702 6.75399 5.47472C7.07049 5.86241 7.24134 6.34905 7.23682 6.84996C7.23682 8.41244 5.9569 9.24191 4.02259 9.24191H0V0.590371ZM5.22552 3.03055C5.22552 2.34576 4.67699 1.93102 3.6954 1.93102H1.51088V4.24582H3.59916C4.56151 4.24582 5.22552 3.86966 5.22552 3.04019V3.03055ZM3.94561 5.54789H1.53013V7.93984H4.07071C5.12929 7.93984 5.77406 7.53475 5.77406 6.75351C5.77406 5.97227 5.12929 5.54789 3.94561 5.54789Z" fill="#0973B9"/>
<path d="M8.71882 7.56369H10.3837V9.28049H8.71882V7.56369Z" fill="#0973B9"/>
<path d="M12.4431 0.590375H15.8595C17.8996 0.590375 19.1507 1.74777 19.1507 3.48387C19.1507 5.41286 17.5917 6.45452 15.6862 6.45452H13.954V9.25156H12.4143V0.571085L12.4431 0.590375ZM15.7632 5.12351C16.918 5.12351 17.6879 4.46765 17.6879 3.56103C17.6879 2.52901 16.9565 1.99854 15.7632 1.99854H13.9733V5.12351H15.7632Z" fill="#0973B9"/>
<path d="M24.0586 0.513213H25.4636L29.313 9.29978H27.6481L26.7724 7.18753H22.644L21.7394 9.29978H20.2092L24.0586 0.513213ZM26.2142 5.78901L24.713 2.34576L23.231 5.78901H26.2142Z" fill="#0973B9"/>
<path d="M30.5641 4.96919C30.5817 4.06283 30.8649 3.18168 31.3786 2.4355C31.8922 1.68932 32.6136 1.11108 33.4527 0.772809C34.2919 0.434535 35.2119 0.351176 36.098 0.533115C36.9841 0.715053 37.7972 1.15425 38.436 1.796L37.4544 2.89552C37.1398 2.56343 36.7626 2.29701 36.3448 2.11162C35.9269 1.92622 35.4766 1.82551 35.0197 1.81529C34.6247 1.81449 34.2337 1.89495 33.871 2.05169C33.5082 2.20842 33.1814 2.4381 32.9108 2.7265C32.6402 3.0149 32.4315 3.3559 32.2977 3.72838C32.1638 4.10087 32.1077 4.49692 32.1327 4.89203C32.1106 5.28789 32.1686 5.68413 32.3031 6.05696C32.4377 6.4298 32.6461 6.77152 32.9157 7.0616C33.1854 7.35168 33.5108 7.58414 33.8723 7.74501C34.2339 7.90588 34.6242 7.99183 35.0197 7.99771C35.4888 8.00427 35.9541 7.91338 36.3864 7.73079C36.8187 7.54819 37.2086 7.27784 37.5314 6.93677L38.4938 7.90126C38.0589 8.40567 37.5168 8.80609 36.9073 9.07312C36.2978 9.34016 35.6364 9.46704 34.9716 9.44446C34.3883 9.44322 33.811 9.32619 33.273 9.10013C32.735 8.87408 32.2471 8.54346 31.8373 8.12738C31.4275 7.7113 31.104 7.21799 30.8855 6.67593C30.667 6.13387 30.5577 5.55379 30.5641 4.96919Z" fill="#0973B9"/>
<path d="M27.2728 27.8181C27.1477 27.9724 27.1958 28.1461 27.1765 28.3004C26.8186 31.0547 25.6296 33.6336 23.7686 35.6918C21.9077 37.7499 19.4637 39.1891 16.764 39.8165C15.5391 40.1099 14.2772 40.2172 13.0205 40.1348C10.105 39.992 7.31325 38.9108 5.05955 37.0517C2.80585 35.1926 1.21039 32.6546 0.510018 29.8146C0.137122 28.3147 0.0264182 26.7614 0.182821 25.2236C0.465114 22.3505 1.65242 19.6419 3.57285 17.49C5.49328 15.3381 8.04718 13.8546 10.8648 13.2542C11.3754 13.1265 11.8979 13.0521 12.4238 13.0324C12.4719 13.0324 12.5008 13.0324 12.5201 13.0324H14.8874C14.8874 13.0324 14.8874 13.0324 14.9644 13.0324C15.3699 13.0523 15.7727 13.1105 16.1673 13.206C19.0691 13.7379 21.7186 15.2038 23.7141 17.3813C25.7095 19.5587 26.942 22.329 27.2247 25.2719C27.2247 25.3297 27.2247 25.3779 27.2728 25.3972V27.8181ZM13.0975 27.5963L14.6276 27.0079C15.8883 26.5546 17.1201 26.1303 18.3711 25.6962C18.7322 25.5539 19.1269 25.5204 19.5067 25.5998C19.8124 25.6742 20.0906 25.8343 20.3088 26.0615C20.527 26.2887 20.676 26.5735 20.7385 26.8826C20.8013 27.1646 20.7749 27.4593 20.6628 27.7255C20.5506 27.9917 20.3584 28.2163 20.1129 28.3679C19.7984 28.5957 19.4512 28.7746 19.0832 28.8984C17.3703 29.5414 15.6605 30.1844 13.954 30.8274C13.0686 31.1553 12.164 31.4543 11.3075 31.8594C10.9913 31.9957 10.7052 32.1934 10.4656 32.4411C10.226 32.6888 10.0377 32.9816 9.91154 33.3026C9.78539 33.6236 9.7239 33.9664 9.73061 34.3113C9.73731 34.6563 9.81208 34.9964 9.9506 35.3123L10.0276 35.4569C10.3257 36.0011 10.7815 36.4417 11.3347 36.7207C11.888 36.9997 12.5127 37.1039 13.1263 37.0194C13.6999 36.9094 14.2633 36.7513 14.8104 36.5468C15.1088 36.4407 15.436 36.3153 15.7728 36.2189L15.1184 34.5021L14.6661 34.6564C14.1079 34.859 13.5594 35.0808 12.982 35.2351C12.7625 35.2986 12.527 35.2736 12.3256 35.1655C12.1243 35.0574 11.973 34.8747 11.9042 34.6564C11.8054 34.4457 11.7913 34.205 11.8647 33.9842C11.9382 33.7633 12.0936 33.5792 12.2987 33.4701L12.8088 33.2386C15.0414 32.3609 17.3318 31.5797 19.5933 30.7695C20.2785 30.5442 20.927 30.2192 21.518 29.805C22.1784 29.2947 22.6128 28.5453 22.7279 27.7175C22.8431 26.8898 22.6298 26.0498 22.1339 25.3779C21.9372 25.1085 21.7002 24.871 21.4314 24.6739C20.9253 24.2851 20.3231 24.0417 19.6895 23.9698C19.6895 23.8348 19.7665 23.7865 19.8242 23.6901C20.2248 23.0085 20.4405 22.2338 20.4498 21.4428C20.3782 20.3118 19.8874 19.2484 19.0737 18.4615C18.26 17.6745 17.1822 17.2208 16.0519 17.1894C15.2282 17.1668 14.4079 17.3044 13.6364 17.5945C11.3268 18.3757 9.0845 19.2823 6.79412 20.1311C6.31025 20.3205 5.87345 20.6134 5.5142 20.9895C5.22659 21.3105 5.01423 21.6919 4.89268 22.1057C4.77113 22.5196 4.74346 22.9555 4.81169 23.3814C4.84137 23.9233 5.02715 24.4449 5.34654 24.8832C5.66594 25.3214 6.10525 25.6574 6.61127 25.8506C7.24594 26.0843 7.93475 26.1278 8.5937 25.9759C9.25115 25.8915 9.86593 25.6036 10.3524 25.1523C10.8388 24.7011 11.1727 24.109 11.3075 23.4586C11.4393 22.795 11.4652 22.1146 11.3845 21.4428C11.3845 21.0956 11.2594 20.7387 11.2113 20.3915L12.5104 19.8803C13.3887 19.5026 14.3098 19.2337 15.2531 19.0798C15.9317 18.9784 16.6228 19.1481 17.1778 19.5524C17.5639 19.832 17.8773 20.2005 18.0917 20.6268C18.306 21.0531 18.4151 21.5248 18.4096 22.0022C18.4142 22.3549 18.3345 22.7035 18.1771 23.019C18.0198 23.3345 17.7893 23.6076 17.505 23.8155C17.2427 24.012 16.9545 24.1711 16.6485 24.2881C16.1 24.5195 15.5418 24.6932 14.9933 24.9246L12.3757 25.8891L13.0975 27.5963Z" fill="#0973B9"/>
<path d="M9.45019 20.9895C9.48038 21.0213 9.50626 21.057 9.52718 21.0956C9.73154 21.7175 9.77459 22.3814 9.65228 23.0246C9.61093 23.236 9.52819 23.4371 9.40883 23.6162C9.28946 23.7953 9.13586 23.949 8.95688 24.0683C8.77791 24.1876 8.57712 24.2701 8.36612 24.3111C8.15512 24.3522 7.9381 24.3509 7.7276 24.3074H7.69873C7.46502 24.2515 7.25135 24.1318 7.08146 23.9615C6.91157 23.7912 6.79212 23.5771 6.73638 23.3429C6.67458 23.1182 6.677 22.8806 6.74335 22.6572C6.80971 22.4338 6.93734 22.2336 7.1117 22.0794C7.28745 21.9299 7.48148 21.8035 7.6891 21.7032C8.24726 21.4524 8.7958 21.2499 9.3732 21.0281C9.35396 20.9895 9.40207 20.9895 9.45019 20.9895Z" fill="#0973B9"/>
<path d="M37.0502 37.3667C37.0412 37.4014 37.0412 37.438 37.0502 37.4727C36.9632 38.1024 36.686 38.6903 36.2559 39.1575C35.8259 39.6247 35.2635 39.9489 34.6444 40.0865C34.3662 40.166 34.0757 40.1922 33.7879 40.1637C33.1177 40.1413 32.4731 39.9004 31.952 39.4773C31.4309 39.0543 31.0618 38.4724 30.9008 37.82C30.8263 37.4814 30.8004 37.1339 30.8238 36.788C30.8867 36.1365 31.1546 35.5219 31.5888 35.033C32.0229 34.5441 32.601 34.2062 33.2393 34.0681C33.3576 34.054 33.4771 34.054 33.5954 34.0681H34.1247C34.214 34.0543 34.3049 34.0543 34.3941 34.0681C35.0543 34.1918 35.6567 34.5264 36.1112 35.022C36.5657 35.5175 36.8479 36.1472 36.9155 36.8169L37.0502 37.3667Z" fill="#0973B9"/>
<path d="M55.4118 26.4485C51.4028 26.4587 47.5297 24.9931 44.5277 22.3301L47.867 18.3275C49.969 20.2723 52.7058 21.3831 55.5657 21.4524C57.8754 21.4524 59.2708 20.5362 59.2708 19.0316V18.9544C59.2708 17.5173 58.3854 16.7843 54.103 15.6848C48.9352 14.3634 45.5959 12.9263 45.5959 7.8241V7.718C45.5959 3.04984 49.3394 0.00202658 54.5745 0.00202658C58.0336 -0.0552069 61.4037 1.1014 64.1017 3.27167L61.2147 7.53475C59.2948 6.0332 56.9666 5.14892 54.536 4.99812C52.3804 4.99812 51.2448 5.96262 51.2448 7.23576V7.31292C51.2448 9.00079 52.3419 9.55055 56.7783 10.6887C61.9846 12.0486 64.9101 13.9197 64.9101 18.4046V18.4721C64.8331 23.584 60.9549 26.4485 55.4118 26.4485Z" fill="#0973B9"/>
<path d="M88.2854 26.0435L85.9469 20.2565H75.0628L72.7532 26.0435H66.9791L77.9498 0.185284H83.1561L94.1846 26.0435H88.2854ZM80.5193 6.98499L77.1126 15.3182H83.926L80.5193 6.98499Z" fill="#0973B9"/>
<path d="M103.789 5.50931V10.9877H116.03V16.1284H103.789V26.0435H98.159V0.368538H117.685V5.50931H103.789Z" fill="#0973B9"/>
<path d="M122.218 26.0435V0.368538H141.57V5.40321H127.79V10.6115H139.886V15.6365H127.79V21.0377H141.715V26.0435H122.218Z" fill="#0973B9"/>
<path d="M48.7812 40.1637C48.2193 40.1728 47.6613 40.0685 47.1404 39.8569C46.6196 39.6453 46.1466 39.3308 45.7497 38.932C45.3528 38.5333 45.04 38.0586 44.83 37.5361C44.6201 37.0136 44.5172 36.4541 44.5276 35.891C44.5171 35.3207 44.6218 34.7542 44.8356 34.2256C45.0494 33.697 45.3677 33.2172 45.7715 32.8153C46.1752 32.4133 46.656 32.0975 47.1849 31.8868C47.7137 31.6761 48.2797 31.5749 48.8486 31.5893C49.4535 31.5585 50.0581 31.6569 50.6222 31.878C51.1863 32.0992 51.697 32.438 52.1205 32.8721L51.0042 34.1935C50.4526 33.6053 49.6919 33.2587 48.8871 33.229C48.5589 33.2363 48.2355 33.3095 47.9361 33.4443C47.6366 33.5791 47.3672 33.7727 47.1438 34.0138C46.9204 34.2548 46.7475 34.5383 46.6353 34.8475C46.5231 35.1566 46.474 35.4852 46.4908 35.8138C46.4713 36.1439 46.5185 36.4746 46.6294 36.7861C46.7404 37.0975 46.9129 37.3833 47.1366 37.6264C47.3603 37.8695 47.6306 38.0649 47.9314 38.2009C48.2321 38.3369 48.5572 38.4107 48.8871 38.4179C49.2978 38.4166 49.7039 38.3302 50.0798 38.1642C50.4557 37.9983 50.7933 37.7563 51.0716 37.4535L52.2264 38.6301C51.8098 39.1356 51.2818 39.5373 50.6839 39.8034C50.0861 40.0695 49.4347 40.1928 48.7812 40.1637Z" fill="#0973B9"/>
<path d="M57.423 40.1637C56.852 40.1832 56.283 40.0869 55.75 39.8807C55.2171 39.6745 54.7311 39.3625 54.3214 38.9635C53.9116 38.5645 53.5864 38.0868 53.3653 37.5588C53.1442 37.0308 53.0318 36.4635 53.0347 35.891C53.0876 34.7564 53.5746 33.6858 54.3945 32.9016C55.2144 32.1175 56.3041 31.6799 57.4374 31.6799C58.5707 31.6799 59.6605 32.1175 60.4803 32.9016C61.3002 33.6858 61.7872 34.7564 61.8401 35.891C61.8378 36.4645 61.7209 37.0318 61.4961 37.5593C61.2714 38.0868 60.9435 38.5638 60.5317 38.9621C60.1199 39.3604 59.6327 39.6719 59.0987 39.8783C58.5648 40.0847 57.995 40.1817 57.423 40.1637ZM59.9347 35.8717C59.9463 35.5334 59.89 35.1962 59.7691 34.8802C59.6482 34.5642 59.4652 34.2757 59.2309 34.0319C58.9966 33.7881 58.7159 33.594 58.4053 33.461C58.0947 33.3281 57.7607 33.259 57.423 33.2579C57.0887 33.2576 56.7577 33.3251 56.4501 33.4561C56.1424 33.5871 55.8643 33.7791 55.6324 34.0205C55.4006 34.2619 55.2197 34.5477 55.1008 34.8608C54.9818 35.174 54.9272 35.5079 54.9401 35.8427C54.9285 36.1806 54.9849 36.5173 55.1059 36.8328C55.2269 37.1483 55.4101 37.4361 55.6445 37.6792C55.8789 37.9222 56.1597 38.1154 56.4702 38.2473C56.7807 38.3792 57.1146 38.4471 57.4518 38.4469C57.7865 38.4485 58.1181 38.382 58.4264 38.2514C58.7347 38.1209 59.0134 37.9289 59.2455 37.6873C59.4776 37.4456 59.6584 37.1592 59.7769 36.8455C59.8953 36.5318 59.949 36.1972 59.9347 35.862V35.8717Z" fill="#0973B9"/>
<path d="M69.2887 40.019L65.2565 34.7239V39.9997H63.4569V31.7147H65.141L68.9904 36.8265V31.7147H70.7803V40.019H69.2887Z" fill="#0973B9"/>
<path d="M75.7557 40.1444C74.4617 40.1468 73.2119 39.6732 72.2431 38.8134L73.321 37.521C74.0025 38.1306 74.8808 38.4731 75.7942 38.4855C76.5448 38.4855 76.9875 38.1865 76.9875 37.7042C76.9875 37.2413 76.7084 37.0001 75.3226 36.6433C73.6482 36.2189 72.5703 35.7559 72.5703 34.1067C72.5703 32.602 73.7829 31.6086 75.4574 31.6086C76.5745 31.5901 77.6633 31.9618 78.5369 32.6599L77.5745 34.0391C76.9564 33.5515 76.2041 33.2654 75.4189 33.2193C74.726 33.2193 74.3603 33.5376 74.3603 33.9427C74.3603 34.4828 74.7164 34.6661 76.1406 35.0326C77.8247 35.4666 78.7775 36.0742 78.7775 37.521C78.8063 39.2185 77.5457 40.1444 75.7557 40.1444Z" fill="#0973B9"/>
<path d="M83.9645 33.4026V40.019H82.136V33.4026H79.6147V31.7147H86.4858V33.4026H83.9645Z" fill="#0973B9"/>
<path d="M87.9678 40.019V31.7147H89.7866V40.019H87.9678Z" fill="#0973B9"/>
<path d="M95.6088 33.4026V40.019H93.79V33.4026H91.2686V31.7147H98.159V33.4026H95.6088Z" fill="#0973B9"/>
<path d="M102.971 40.1541C100.748 40.1541 99.3908 38.9098 99.3908 36.46V31.7147H101.21V36.4118C101.21 37.7621 101.883 38.4662 103 38.4662C104.116 38.4662 104.79 37.791 104.79 36.4697V31.7147H106.608V36.4022C106.618 38.9195 105.213 40.1541 102.971 40.1541Z" fill="#0973B9"/>
<path d="M108.475 40.019V31.7147H114.731V33.3447H110.284V35.0229H114.192V36.6529H110.284V38.3987H114.788V40.019H108.475Z" fill="#0973B9"/>
<path d="M122.218 40.019L118.205 34.7239V39.9997H116.443V31.7147H118.128L121.977 36.8265V31.7147H123.777V40.019H122.218Z" fill="#0973B9"/>
<path d="M129.647 40.1637C129.085 40.1729 128.527 40.0685 128.006 39.8569C127.485 39.6453 127.012 39.3308 126.615 38.932C126.218 38.5333 125.906 38.0586 125.696 37.5361C125.486 37.0136 125.383 36.4541 125.393 35.891C125.383 35.3207 125.487 34.7542 125.701 34.2256C125.915 33.697 126.233 33.2172 126.637 32.8153C127.041 32.4133 127.522 32.0975 128.05 31.8868C128.579 31.6761 129.145 31.5749 129.714 31.5893C130.318 31.5592 130.921 31.6581 131.483 31.8792C132.045 32.1004 132.554 32.4388 132.977 32.8721L131.841 34.1935C131.288 33.607 130.528 33.2608 129.724 33.229C129.395 33.2363 129.071 33.3095 128.771 33.4442C128.472 33.5789 128.202 33.7723 127.977 34.0132C127.753 34.2541 127.579 34.5375 127.466 34.8467C127.353 35.156 127.302 35.4848 127.318 35.8138C127.3 36.1444 127.348 36.4753 127.46 36.7868C127.572 37.0983 127.746 37.384 127.97 37.627C128.195 37.8699 128.466 38.0652 128.767 38.201C129.068 38.3369 129.394 38.4107 129.724 38.418C130.133 38.4153 130.537 38.3282 130.911 38.1623C131.285 37.9964 131.622 37.7551 131.899 37.4535L133.063 38.6301C132.649 39.1311 132.126 39.5299 131.533 39.7958C130.941 40.0617 130.295 40.1876 129.647 40.1637Z" fill="#0973B9"/>
<path d="M138.577 36.7108V40.019H136.759V36.7494L133.573 31.7147H135.69L137.615 35.0519L139.626 31.7147H141.695L138.577 36.7108Z" fill="#0973B9"/>
</svg>
